<svg xmlns="http://www.w3.org/2000/svg"  viewBox="0 0 72 72" width="64px" height="64px" baseProfile="basic"><path fill="#060000" d="M36,12c13.234,0,24,10.766,24,24c0,13.234-10.766,24-24,24S12,49.234,12,36	C12,22.766,22.766,12,36,12z M29.607,44.898c0-2.62,0-8.716,0-11.335c0-0.681-0.552-1.232-1.232-1.232c-0.391,0-0.824,0-1.215,0	c-0.681,0-1.232,0.552-1.232,1.232c0,2.62,0,8.716,0,11.335c0,0.681,0.552,1.232,1.232,1.232c0.391,0,0.824,0,1.215,0	C29.055,46.13,29.607,45.579,29.607,44.898z M27.767,29.571c1.015,0,1.84-0.825,1.84-1.84c0-1.015-0.825-1.84-1.84-1.84	s-1.84,0.825-1.84,1.84C25.927,28.746,26.751,29.571,27.767,29.571z M47.087,44.915c0-2.197,0-6.604,0-6.604	c0-3.303-2.677-5.98-5.98-5.98c-1.608,0-3.065,0.638-4.14,1.671v-0.455c0-0.671-0.544-1.216-1.216-1.216c-0.401,0-0.847,0-1.249,0	c-0.671,0-1.216,0.544-1.216,1.216c0,2.616,0,8.753,0,11.369c0,0.671,0.544,1.216,1.216,1.216c0.401,0,0.847,0,1.249,0	c0.672,0,1.216-0.544,1.216-1.216c0-1.98,0-5.684,0-5.684c0-1.771,1.449-3.22,3.22-3.22s3.22,1.449,3.22,3.22v5.684	c0,0.671,0.544,1.216,1.216,1.216c0.401,0,0.847,0,1.249,0C46.542,46.13,47.087,45.586,47.087,44.915z"/></svg>